<svg width="32" height="32" viewBox="0 0 32 32" fill="none" xmlns="http://www.w3.org/2000/svg">
<path d="M0 8C0 3.58172 3.58172 0 8 0H24C28.4183 0 32 3.58172 32 8V24C32 28.4183 28.4183 32 24 32H8C3.58172 32 0 28.4183 0 24V8Z" fill="#6729D8"/>
<path d="M12.8269 6.90025C14.751 6.93656 16.4818 7.15311 18.1553 7.77163C18.3798 7.85332 18.5965 7.96484 18.8079 8.08154C18.932 8.15156 19.0507 8.24622 19.1499 8.35125C19.364 8.57687 19.3718 8.82584 19.1604 9.04887C19.0272 9.19021 18.8706 9.31599 18.7061 9.41324C18.1213 9.76724 17.4778 9.96563 16.833 10.1562C15.14 10.6555 13.4287 11.0691 11.6834 11.2999C11.0295 11.3855 10.3703 11.4659 9.72023 11.309C9.42523 11.2377 9.12239 11.1314 8.85871 10.9758C7.9737 10.4493 7.75701 9.41065 8.31831 8.51334C8.67336 7.94668 9.18504 7.59528 9.77244 7.35798C10.3729 7.11421 11.0047 7.01955 11.6391 6.96249C12.0881 6.92359 12.5397 6.91063 12.8282 6.89636V6.90025H12.8269Z" fill="#F5F3FF"/>
<path d="M22.0725 9.66707C22.6573 9.68004 23.2851 9.71375 23.883 9.93548C24.2902 10.0859 24.6322 10.3323 24.8607 10.7304C25.2497 11.4098 25.0043 12.171 24.3098 12.464C23.9495 12.6157 23.5736 12.6339 23.1964 12.5911C21.8153 12.4355 20.4708 12.0906 19.1603 11.6056C18.9084 11.5123 18.6616 11.3787 18.4384 11.2231C18.0977 10.9832 18.1108 10.7057 18.4541 10.471C18.8392 10.2078 19.2791 10.0898 19.7151 9.97179C20.4748 9.76821 21.2475 9.68004 22.0725 9.66577V9.66707Z" fill="#F5F3FF"/>
<path d="M11.2855 15.1478C11.0388 15.1193 10.7882 15.1115 10.5467 15.0544C10.223 14.9779 9.96972 14.7769 9.89663 14.4139C9.82222 14.043 9.95928 13.7409 10.223 13.4984C10.4788 13.2637 10.7856 13.1626 11.1145 13.1405C12.1196 13.0705 13.0764 13.2806 13.9862 13.7383C14.0998 13.7953 14.2094 13.8693 14.3086 13.9535C14.5188 14.1338 14.511 14.3348 14.2799 14.4813C14.1416 14.5695 13.9862 14.6421 13.8296 14.6888C12.9994 14.9338 12.1496 15.0609 11.2881 15.1491H11.2868L11.2855 15.1478Z" fill="#F5F3FF"/>
<path d="M14.6649 16.1083C14.5996 16.5842 14.533 17.0653 14.4665 17.558C13.4705 17.0951 12.7017 16.391 12.1678 15.3627C12.3675 15.3303 12.5528 15.2979 12.7369 15.2733C12.7617 15.2694 12.7982 15.2914 12.8178 15.3122C13.2982 15.8451 13.9052 16.0474 14.58 16.0785C14.5957 16.0785 14.6127 16.0824 14.627 16.0863C14.6362 16.0902 14.6453 16.0967 14.6649 16.1083Z" fill="#F5F3FF"/>
<path d="M15.9467 2.94043C8.7491 2.94043 2.89339 8.75738 2.89339 15.9073C2.89339 23.0573 8.7491 28.8742 15.9467 28.8742C23.1443 28.8742 29 23.0573 29 15.9073C29 8.75738 23.1443 2.94043 15.9467 2.94043ZM18.0391 27.3143C18.1527 24.6029 18.2297 24.6704 18.0992 21.9084C18.0013 19.8791 17.7898 17.8666 17.4008 15.8762C17.3538 15.6363 17.3617 15.4016 17.4517 15.1799C17.5327 14.9789 17.624 14.7792 17.7402 14.6003C18.1253 14.0025 18.6357 13.5344 19.18 13.1065C19.4933 12.8601 19.8248 12.6358 20.1564 12.3946C19.877 12.309 19.6055 12.2208 19.3301 12.1456C19.2583 12.1262 19.1656 12.1184 19.103 12.1508C18.6918 12.3583 18.2624 12.5385 17.8877 12.8057C17.4831 13.0935 17.1293 13.4683 16.7482 13.808C16.7351 13.7808 16.7116 13.7276 16.6855 13.6718C16.5197 13.314 16.3592 12.9509 16.183 12.5982C15.9167 12.0665 15.5825 11.5894 15.1309 11.2133C15.0865 11.1757 15.0134 11.1342 14.9651 11.1459C14.7223 11.1965 14.4821 11.2626 14.2224 11.3287C14.3568 11.4791 14.4782 11.6075 14.5957 11.7437C15.1805 12.427 15.4885 13.2193 15.3867 14.1542C15.3397 14.5782 15.2457 14.9971 15.1765 15.4172C14.7497 17.9639 14.5239 20.5287 14.4521 23.113C14.3855 25.5067 14.4377 25.0438 14.5422 27.4181C8.76868 26.7243 4.28095 21.828 4.28095 15.9099C4.28095 9.51724 9.51664 4.31752 15.9506 4.31752C22.3846 4.31752 27.6203 9.51854 27.6203 15.9099C27.6203 21.5933 23.4824 26.334 18.0417 27.3169H18.0431L18.0391 27.3143Z" fill="#F5F3FF"/>
</svg>
