<svg width="154" height="41" viewBox="0 0 154 41" fill="none" xmlns="http://www.w3.org/2000/svg">
<path d="M94.7331 16.1368C93.7305 16.1368 92.9017 16.9439 92.9017 17.9698L92.8215 24.96C92.8215 25.7123 92.6877 26.41 92.4471 27.0529C91.7252 29.0091 90.1612 30.0213 87.9421 29.994C85.5358 29.9666 83.8916 28.585 83.4504 26.2048C83.3836 25.8355 83.3434 25.4251 83.3434 24.9737L83.4504 17.8741C83.4638 16.8481 82.6617 16 81.6591 15.9863C80.6565 15.9863 79.841 16.7934 79.8277 17.8194L79.7207 24.9326V24.96C79.7207 25.6576 79.7742 26.3006 79.8945 26.9161C80.6832 31.061 83.7579 33.6737 87.9154 33.7285C91.6852 33.7695 94.5727 31.827 95.856 28.3798C96.2437 27.3402 96.4442 26.2048 96.4575 25.001L96.5378 18.0109C96.5378 16.9849 95.749 16.1368 94.7464 16.1368H94.7331Z" fill="#7D33FF"/>
<path d="M50.1637 15.7945C48.359 15.7671 46.6747 16.3417 45.271 17.3129L45.3379 11.3213C45.3379 10.2954 44.5491 9.44727 43.5465 9.44727C42.5439 9.44727 41.7151 10.2543 41.7151 11.2803L41.5814 23.8379C41.5681 24.0295 41.5547 24.2346 41.5547 24.4262C41.5547 24.6177 41.5547 24.8229 41.5681 25.0144V25.0965C41.5681 25.2332 41.5681 25.37 41.6082 25.5068C42.0894 29.8158 45.6453 33.1946 49.9766 33.2357C54.6822 33.2904 58.5455 29.4191 58.599 24.604C58.6525 19.7889 54.8693 15.8355 50.1771 15.7808L50.1637 15.7945ZM50.0167 29.5149C47.4768 29.4875 45.4047 27.463 45.1908 24.9186V23.9884C45.4582 21.4441 47.5703 19.4742 50.1236 19.5016C52.824 19.5289 54.9896 21.7997 54.9629 24.5629C54.9362 27.3262 52.717 29.5422 50.0167 29.5149Z" fill="#7D33FF"/>
<path d="M77.6887 24.0845L77.7556 17.8194C77.7556 16.7934 76.9669 15.9453 75.9642 15.9453C74.9616 15.9453 74.213 16.684 74.1328 17.6415C72.7693 16.643 71.0983 16.0411 69.2802 16.0274C64.5746 15.9727 60.7113 19.8439 60.6578 24.6454C60.6043 29.4605 64.3875 33.4138 69.0797 33.4686C70.8977 33.4959 72.5821 32.9214 73.9858 31.9502C74.1195 32.8256 74.8547 33.5096 75.7637 33.5096C76.7663 33.5096 77.5952 32.7025 77.5952 31.6766L77.662 25.6029C77.6887 25.3567 77.7021 25.0968 77.7021 24.8506C77.7021 24.6043 77.7021 24.3444 77.6754 24.0982L77.6887 24.0845ZM69.1332 29.7478C66.4328 29.7204 64.2672 27.4497 64.2939 24.6864C64.3206 21.9232 66.5397 19.7071 69.2401 19.7345C71.7399 19.7618 73.7986 21.718 74.0526 24.2076V25.3704C73.7318 27.86 71.633 29.7615 69.1332 29.7341V29.7478Z" fill="#7D33FF"/>
<path d="M106.911 16.5063C105.106 16.479 103.502 17.1356 102.112 18.1068L102.179 12.1153C102.179 11.0893 101.39 10.2412 100.387 10.2412C99.3847 10.2412 98.5559 11.0483 98.5559 12.0742L98.4222 24.6319C98.4089 24.8234 98.3955 25.0286 98.3955 25.2201C98.3955 25.4116 98.3955 25.6168 98.4089 25.8083V25.8904C98.4089 26.0272 98.4089 26.164 98.449 26.3008C98.9302 30.6098 102.393 33.8928 106.737 33.9475C111.443 34.0022 115.386 30.2267 115.44 25.4116C115.493 20.5965 111.63 16.5611 106.924 16.5063H106.911ZM106.764 30.2268C104.224 30.1994 102.232 28.2706 102.032 25.7262V24.796C102.299 22.2517 104.331 20.1998 106.871 20.2271C109.571 20.2545 111.737 22.5253 111.71 25.2885C111.683 28.0517 109.464 30.2678 106.764 30.2404V30.2268Z" fill="#7D33FF"/>
<path d="M134.437 24.8091L134.504 18.544C134.504 17.518 133.715 16.6699 132.712 16.6699C131.71 16.6699 130.961 17.4086 130.881 18.3662C129.517 17.3676 127.846 16.7657 126.028 16.752C121.323 16.6973 117.459 20.5685 117.406 25.3837C117.352 30.1988 121.136 34.1521 125.841 34.2069C127.659 34.2342 129.344 33.6597 130.747 32.6884C130.881 33.5639 131.616 34.2479 132.525 34.2479C133.528 34.2479 134.357 33.4408 134.357 32.4149L134.423 26.3412C134.45 26.095 134.464 25.8351 134.464 25.5889C134.464 25.3426 134.464 25.0827 134.437 24.8365V24.8091ZM125.881 30.4724C123.181 30.445 121.015 28.1743 121.042 25.411C121.069 22.6478 123.288 20.4317 125.988 20.4591C128.488 20.4865 130.547 22.4426 130.801 24.9323V26.095C130.48 28.5846 128.381 30.4861 125.881 30.4587V30.4724Z" fill="#7D33FF"/>
<path d="M145.077 16.862C140.732 16.8073 137.109 20.104 136.534 24.3993C136.508 24.5361 136.481 24.6729 136.481 24.8097V24.8918C136.468 25.0833 136.454 25.2885 136.454 25.48C136.454 25.6715 136.454 25.8767 136.468 26.0682L136.334 38.6259C136.334 39.6518 137.123 40.4999 138.125 40.4999C139.128 40.4999 139.957 39.6929 139.957 38.6669L140.024 32.6753C141.401 33.6739 143.071 34.2758 144.876 34.3032C149.582 34.3579 153.445 30.4866 153.499 25.6852C153.552 20.87 149.769 16.9167 145.077 16.862ZM144.93 30.5824C142.39 30.555 140.318 28.5305 140.104 25.9861V25.0559C140.371 22.5116 142.483 20.5417 145.037 20.5691C147.737 20.5965 149.903 22.8672 149.876 25.6305C149.849 28.3937 147.63 30.6098 144.93 30.5824Z" fill="#7D33FF"/>
<path d="M19.6578 0.501305C9.21727 0.378191 0.621588 8.98251 0.501275 19.6661C0.380962 30.3497 8.78949 39.1455 19.23 39.2686C29.6704 39.3917 38.2661 30.7874 38.3864 20.1038C38.5068 9.42025 30.0982 0.624419 19.6578 0.501305ZM22.2913 36.9568C22.5052 32.9077 22.6121 33.0035 22.465 28.886C22.3581 25.8492 22.0774 22.8397 21.5427 19.8576C21.4758 19.5019 21.4892 19.1463 21.6229 18.818C21.7432 18.517 21.8769 18.2161 22.0506 17.9562C22.6255 17.067 23.3607 16.383 24.1628 15.7401C24.6173 15.3708 25.0986 15.0425 25.5932 14.6868C25.1922 14.55 24.7911 14.4132 24.4034 14.3038C24.2965 14.2764 24.1628 14.2627 24.0692 14.3038C23.4677 14.6047 22.8394 14.8646 22.2913 15.2613C21.7031 15.6854 21.1817 16.2326 20.6203 16.7387C20.6069 16.6977 20.5668 16.6156 20.5267 16.5335C20.286 16 20.0722 15.4528 19.8182 14.9193C19.4439 14.1259 18.9626 13.4009 18.3209 12.8264C18.2541 12.7717 18.1472 12.7033 18.0803 12.717C17.7327 12.7854 17.3852 12.8811 16.9975 12.9769C17.1847 13.2094 17.3718 13.4009 17.5322 13.6061C18.3744 14.6321 18.8022 15.8222 18.6418 17.2175C18.5616 17.8467 18.4279 18.476 18.3209 19.1052C17.6525 22.9081 17.2916 26.7383 17.1445 30.5959C17.0109 34.1662 17.0911 33.4822 17.198 37.0252C8.8296 35.8898 2.39955 28.5029 2.49313 19.6524C2.60007 10.1042 10.2734 2.41641 19.6177 2.52585C28.9486 2.63528 36.4614 10.4872 36.3545 20.0491C36.2609 28.544 30.1784 35.5615 22.2779 36.9431L22.2913 36.9568Z" fill="#7D33FF"/>
<path d="M15.0598 6.36914C17.8538 6.45122 20.3536 6.80688 22.7732 7.76443C23.0941 7.88754 23.4149 8.06537 23.709 8.24321C23.8828 8.35264 24.0565 8.48944 24.2036 8.65359C24.5111 8.99557 24.5244 9.36492 24.2036 9.69322C24.0031 9.89842 23.7758 10.0899 23.5352 10.2267C22.6796 10.7465 21.7439 11.0338 20.8081 11.3074C18.3484 12.0187 15.8485 12.6206 13.322 12.9352C12.3728 13.0583 11.4103 13.1678 10.4746 12.9216C10.0468 12.8121 9.60564 12.648 9.23134 12.4154C7.96137 11.6083 7.65391 10.0626 8.48273 8.72199C9.00408 7.88755 9.75269 7.36773 10.6082 7.02574C11.4772 6.67008 12.3996 6.54697 13.322 6.4649C13.977 6.41018 14.6321 6.3965 15.0465 6.38282L15.0598 6.36914Z" fill="#7D33FF"/>
<path d="M28.4272 10.666C29.2827 10.6934 30.1784 10.7481 31.0473 11.0901C31.6355 11.3226 32.1301 11.692 32.4509 12.2939C32.999 13.3198 32.6381 14.4552 31.6221 14.8793C31.1008 15.0981 30.5527 15.1255 30.0046 15.0571C27.9994 14.7972 26.061 14.2637 24.1627 13.5113C23.8018 13.3745 23.4408 13.1694 23.12 12.9231C22.6254 12.5538 22.6521 12.1434 23.1601 11.8014C23.7216 11.4184 24.3632 11.2406 24.9915 11.0764C26.1011 10.7891 27.224 10.666 28.4138 10.6523L28.4272 10.666Z" fill="#7D33FF"/>
<path d="M12.6929 18.6683C12.332 18.6273 11.971 18.5999 11.6234 18.5178C11.1556 18.3947 10.7946 18.0938 10.6877 17.5466C10.5807 16.9994 10.7946 16.5343 11.1689 16.1786C11.5432 15.8367 11.9844 15.6862 12.4656 15.6588C13.9228 15.5768 15.313 15.9051 16.6231 16.6027C16.7835 16.6848 16.944 16.8079 17.091 16.931C17.3985 17.2046 17.3851 17.5055 17.0375 17.7244C16.837 17.8475 16.6098 17.957 16.3825 18.0254C15.1794 18.381 13.9361 18.5589 12.6929 18.6683Z" fill="#7D33FF"/>
<path d="M17.5723 20.1589C17.4653 20.8702 17.3718 21.5816 17.2648 22.3202C15.8344 21.6089 14.7249 20.5419 13.9629 18.9962C14.257 18.9551 14.5244 18.9004 14.7917 18.873C14.8318 18.873 14.8853 18.9004 14.912 18.9278C15.5938 19.7348 16.4761 20.0495 17.452 20.1042C17.4787 20.1042 17.4921 20.1042 17.5188 20.1042C17.5322 20.1042 17.5456 20.1179 17.5723 20.1315V20.1589Z" fill="#7D33FF"/>
</svg>
