<?xml version="1.0" standalone="no"?>
<!DOCTYPE svg PUBLIC "-//W3C//DTD SVG 20010904//EN"
 "http://www.w3.org/TR/2001/REC-SVG-20010904/DTD/svg10.dtd">
<svg version="1.0" xmlns="http://www.w3.org/2000/svg"
 width="501.000000pt" height="501.000000pt" viewBox="0 0 501.000000 501.000000"
 preserveAspectRatio="xMidYMid meet">
<metadata>
Created by potrace 1.14, written by Peter Selinger 2001-2017
</metadata>
<g transform="translate(0.000000,501.000000) scale(0.100000,-0.100000)"
fill="#000000" stroke="none">
<path d="M2250 5000 c-179 -24 -189 -25 -305 -51 -835 -185 -1528 -808 -1813
-1630 -33 -94 -88 -310 -97 -379 -3 -25 -11 -70 -16 -100 -6 -30 -12 -156 -14
-280 -3 -205 0 -275 20 -410 110 -768 578 -1447 1260 -1827 286 -159 588 -256
925 -298 109 -13 514 -15 580 -2 14 3 47 8 73 12 27 4 59 8 70 11 12 2 34 6
49 9 238 44 525 150 756 282 89 50 285 182 328 221 11 9 44 38 74 63 220 186
430 453 585 744 103 193 217 537 241 730 3 22 7 45 9 52 19 58 28 489 13 623
-23 198 -59 365 -120 545 -247 735 -845 1329 -1583 1570 -126 41 -256 74 -365
91 -19 3 -62 10 -95 16 -72 12 -497 18 -575 8z m430 -314 c52 -4 102 -9 110
-11 8 -2 37 -6 64 -10 112 -14 304 -67 451 -125 501 -198 923 -588 1159 -1074
83 -170 158 -390 182 -536 2 -14 7 -36 10 -50 4 -14 8 -45 11 -70 2 -25 7 -69
12 -98 9 -59 7 -371 -3 -442 -26 -184 -45 -272 -86 -405 -168 -551 -587 -1047
-1106 -1308 -60 -30 -203 -93 -234 -102 -3 -1 -39 -12 -80 -25 -41 -13 -79
-25 -85 -26 -87 -20 -116 -26 -146 -30 l-35 -5 2 58 c2 32 6 114 10 183 4 69
7 229 7 355 0 261 -7 430 -29 700 -13 165 -22 257 -29 315 -3 19 -7 60 -10 90
-3 30 -10 78 -15 105 -5 28 -11 70 -14 95 -3 25 -15 94 -27 153 -24 124 -21
191 9 260 65 146 196 281 450 464 26 19 39 34 32 38 -19 11 -144 45 -168 45
-33 0 -188 -82 -269 -142 -38 -27 -96 -77 -130 -111 -34 -33 -64 -59 -66 -56
-2 2 -38 74 -79 159 -107 222 -211 347 -279 335 -45 -8 -110 -28 -114 -34 -2
-4 11 -22 28 -41 167 -180 213 -348 166 -610 -10 -58 -21 -125 -24 -150 -4
-25 -8 -52 -10 -60 -9 -32 -24 -139 -51 -350 -15 -124 -18 -152 -29 -262 -34
-367 -48 -683 -48 -1038 0 -118 4 -284 8 -367 8 -149 8 -153 -12 -153 -17 0
-177 26 -208 34 -5 2 -23 6 -40 11 -622 158 -1158 599 -1432 1176 -84 176
-152 390 -179 559 -3 19 -7 46 -10 60 -19 112 -25 411 -11 545 82 810 616
1510 1377 1807 102 40 259 89 330 102 14 3 34 7 45 9 41 10 172 27 240 33 38
3 70 6 71 7 4 4 192 -1 284 -7z"/>
<path d="M1788 4225 c-2 -1 -42 -5 -90 -9 -185 -14 -288 -39 -416 -101 -174
-86 -272 -218 -280 -380 -4 -69 -1 -88 21 -137 43 -97 127 -164 256 -202 50
-15 147 -29 196 -29 31 0 198 13 220 17 11 2 41 6 66 10 64 9 93 14 179 31 41
8 91 17 110 20 78 13 486 118 640 165 285 87 450 185 450 268 0 71 -65 124
-231 188 -94 36 -319 97 -399 109 -25 3 -52 8 -60 10 -8 2 -40 7 -70 10 -30 3
-66 8 -80 10 -91 13 -501 30 -512 20z"/>
<path d="M3445 3688 c-214 -36 -384 -85 -447 -129 -104 -71 -90 -129 50 -202
117 -61 454 -160 657 -193 11 -2 34 -5 50 -8 190 -31 274 -26 363 24 48 27 98
96 108 146 18 95 -33 206 -126 276 -38 28 -150 71 -215 83 -60 10 -383 13
-440 3z"/>
<path d="M1507 3023 c-55 -18 -121 -77 -140 -125 -26 -63 -6 -155 43 -195 46
-38 168 -54 310 -39 63 6 113 15 291 51 43 9 120 35 155 53 94 49 74 107 -56
168 -91 43 -172 70 -265 89 -16 4 -88 8 -160 10 -102 4 -140 1 -178 -12z"/>
<path d="M1825 2622 c-38 -7 -37 -20 11 -94 65 -101 193 -225 290 -282 43 -25
83 -46 89 -46 11 0 40 180 40 245 0 28 -2 30 -55 38 -109 15 -168 41 -252 109
-45 38 -62 42 -123 30z"/>
</g>
</svg>
